<svg xmlns="http://www.w3.org/2000/svg" width="476.24" height="513.31" viewBox="0 0 476.24 513.31">
  <title>logo</title>
  <g>
    <path d="M325.78,320.31s82.93-33.72,88.14-79.21a16.53,16.53,0,0,0-5.34-14.33c-4.47-3.94-12.52-8.07-27-9.89a13.44,13.44,0,0,0-6.41.75,365.59,365.59,0,0,1-66.31,17.45A20.14,20.14,0,0,0,300,239C287,249,248.84,280.47,247.21,306.56" transform="translate(-25.33 6.81)" style="fill: none;stroke: #000;stroke-miterlimit: 10;stroke-width: 9px"/>
    <path d="M388.64,218.17" transform="translate(-25.33 6.81)" style="fill: none;stroke: #000;stroke-miterlimit: 10;stroke-width: 9px"/>
    <path d="M284.53,231.92s-39.28-70.71-62.85-72.68-29.46-27.49-29.46-27.49-13.75,27.49-23.58,29.46-7.85,35.35-7.85,35.35,19.64,78.57,76.6,100.18" transform="translate(-25.33 6.81)" style="fill: none;stroke: #000;stroke-miterlimit: 10;stroke-width: 9px"/>
    <path d="M376.85,198.53s7.86-9.82-3.93-21.61-27.5-31.42-27.5-31.42-42.11,42-58.92,47.14c-16,4.86-19,8.86-19,8.86" transform="translate(-25.33 6.81)" style="fill: none;stroke: #000;stroke-miterlimit: 10;stroke-width: 9px"/>
    <path d="M418.1,263.35s67.61-43.09,78.57-119.82c1-6.87.19-22-2.95-22.59-3.41-.68-13.75,15.72-16.69,18.66-4.34,4.34-9.79,12-17.44,20.38-9.57,10.56-18.9,16-27.74,24.8l-25.54,25.53h0" transform="translate(-25.33 6.81)" style="fill: none;stroke: #000;stroke-miterlimit: 10;stroke-width: 9px"/>
    <path d="M404.35,182.82s15.71-29.47,11.79-51.07,0-80.54,0-80.54-51.07,37.32-64.82,74.64" transform="translate(-25.33 6.81)" style="fill: none;stroke: #000;stroke-miterlimit: 10;stroke-width: 9px"/>
    <path d="M337.57,131.75S311.62,93.6,300.25,90.5C289.44,87.55,286.5,63,286.5,63s2,21.6-7.86,27.5S247.21,118,247.21,118" transform="translate(-25.33 6.81)" style="fill: none;stroke: #000;stroke-miterlimit: 10;stroke-width: 9px"/>
    <path d="M198.11,100.32s3.93-41.25,25.53-55S247.21,8,247.21,8s15.72,27.5,29.47,31.43S300.25,65,300.25,65" transform="translate(-25.33 6.81)" style="fill: none;stroke: #000;stroke-miterlimit: 10;stroke-width: 9px"/>
    <path d="M225.61,141.57c-1.38-1.41-17.68-33.4-37.32-39.29s-43.22-31.43-43.22-31.43-5.89,74.65,7.86,90.36" transform="translate(-25.33 6.81)" style="fill: none;stroke: #000;stroke-miterlimit: 10;stroke-width: 9px"/>
    <path d="M257,171s11.79-7.86,13.75-19.64c0,0,3.93,19.64,13.75,23.57" transform="translate(-25.33 6.81)" style="fill: none;stroke: #000;stroke-miterlimit: 10;stroke-width: 9px"/>
    <path d="M227.57,147.46s15.71-15.71,11.79-23.57c0,0,9.82,21.61,15.71,21.61" transform="translate(-25.33 6.81)" style="fill: none;stroke: #000;stroke-miterlimit: 10;stroke-width: 9px"/>
    <path d="M294.35,157.28s14.74-16.7,17.68-23.57c0,0-5.89,17.68,3.93,23.57" transform="translate(-25.33 6.81)" style="fill: none;stroke: #000;stroke-miterlimit: 10;stroke-width: 9px"/>
    <path d="M277.66,325.22s-86.43-37.32-100.18-47.14c-12.29-8.78-88.57-46.24-108-55-2.25-1-11.78-3.93-19.64-2-5,1.24-17.47-2.17-19.64,0-2,2,11.78,11.78,11.78,23.57,0,10.58,72.68,74.64,125.71,78.57s110,2,110,2" transform="translate(-25.33 6.81)" style="fill: none;stroke: #000;stroke-miterlimit: 10;stroke-width: 9px"/>
    <path d="M148,197.55s-49.1-39.29-55-70.72,0-39.28-2-62.85c-.15-1.74-2-21.61-3.93-29.46-1.22-4.87-3.93-13.75-2-15.72h0s15.71,9.82,23.57,15.72C114.35,38.73,130,47,138.48,51.31a36.86,36.86,0,0,1,10,7.52c9,9.57,21,17.1,30,26.67" transform="translate(-25.33 6.81)" style="fill: none;stroke: #000;stroke-miterlimit: 10;stroke-width: 9px"/>
    <path d="M87.13,126.83s-19.64-19.64-25.53-21.6A94.5,94.5,0,0,1,36.06,91.48c-8.4-6.53-7,5.55-3.31,20l.15.58a198,198,0,0,0,54.49,94.1l13.49,13" transform="translate(-25.33 6.81)" style="fill: none;stroke: #000;stroke-miterlimit: 10;stroke-width: 9px"/>
    <path d="M112.66,362.69V473a29,29,0,0,0,29.05,29H374.32a29,29,0,0,0,29.05-29V356.59a29,29,0,0,0-36.45-28.08c-49.21,13.07-139.61,30.13-216.83,6.38A29,29,0,0,0,112.66,362.69Z" transform="translate(-25.33 6.81)" style="fill: none;stroke: #000;stroke-miterlimit: 10;stroke-width: 9px"/>
  </g>
</svg>
